<?xml version="1.0" encoding="UTF-8"?>
<svg version="1.1" xmlns="http://www.w3.org/2000/svg" width="1200" height="400">
<path d="M0 0 C51.48 0 102.96 0 156 0 C156 1.98 156 3.96 156 6 C158.64 6 161.28 6 164 6 C164 7.98 164 9.96 164 12 C166.31 12 168.62 12 171 12 C170.7834375 11.38511719 170.566875 10.77023438 170.34375 10.13671875 C169.92609375 8.92435547 169.92609375 8.92435547 169.5 7.6875 C169.08234375 6.48673828 169.08234375 6.48673828 168.65625 5.26171875 C168 3 168 3 168 0 C174.6 0 181.2 0 188 0 C188.33 1.98 188.66 3.96 189 6 C191.31 6 193.62 6 196 6 C196.185625 6.78375 196.37125 7.5675 196.5625 8.375 C197.036875 9.24125 197.51125 10.1075 198 11 C199.11640869 11.22220215 200.23281738 11.4444043 201.38305664 11.67333984 C205 13 205 13 206.89624023 16.43994141 C207.39612704 17.9008453 207.86530892 19.3725001 208.30859375 20.8515625 C208.56504166 21.62559418 208.82148956 22.39962585 209.08570862 23.19711304 C209.89664745 25.66523915 210.66726499 28.143906 211.4375 30.625 C211.98111232 32.30293169 212.52730768 33.98002889 213.07617188 35.65625 C214.41425182 39.76176083 215.71632258 43.87717112 217 48 C215.01868165 42.13035869 213.04335537 36.25874756 211.07348633 30.38525391 C210.40291875 28.38861099 209.73073452 26.39251025 209.05688477 24.39697266 C208.08701991 21.52388222 207.12303957 18.6488741 206.16015625 15.7734375 C205.85908463 14.88570648 205.558013 13.99797546 205.24781799 13.08334351 C204.8274955 11.82271591 204.8274955 11.82271591 204.39868164 10.53662109 C204.15219376 9.80381927 203.90570587 9.07101746 203.65174866 8.31600952 C202.8861763 5.59552389 202.46461676 2.78770055 202 0 C208.6 0 215.2 0 222 0 C222.99 2.475 222.99 2.475 224 5 C227.53514293 6.37967524 227.53514293 6.37967524 231 7 C231.33 8.65 231.66 10.3 232 12 C234.31 12 236.62 12 239 12 C239.29987823 12.96005447 239.59975647 13.92010895 239.90872192 14.90925598 C242.76147725 24.0421613 245.61454801 33.17496803 248.46791267 42.30768299 C249.93416582 47.00072829 251.40031512 51.69380597 252.86621094 56.38696289 C254.28594426 60.93231332 255.70597144 65.47757186 257.12618637 70.02277184 C257.66280044 71.74030095 258.19931585 73.4578609 258.73572159 75.17545509 C262.46744829 87.12428746 266.22411818 99.06504672 270 111 C277.60083194 87.64987168 284.96807338 64.22975788 292.2756958 40.78643799 C293.71655626 36.16522625 295.15914559 31.54455424 296.6015625 26.92382812 C299.40267445 17.94972743 302.20180498 8.97501065 305 0 C311.6 0 318.2 0 325 0 C324.67 1.98 324.34 3.96 324 6 C327.3 6 330.6 6 334 6 C333.34 7.98 332.68 9.96 332 12 C333.32 12 334.64 12 336 12 C336.30744141 10.82630859 336.30744141 10.82630859 336.62109375 9.62890625 C337.02521484 8.11103516 337.02521484 8.11103516 337.4375 6.5625 C337.70433594 5.55316406 337.97117187 4.54382813 338.24609375 3.50390625 C339 1 339 1 340 0 C341.4887186 -0.08669432 342.981445 -0.10703494 344.47265625 -0.09765625 C345.37177734 -0.09443359 346.27089844 -0.09121094 347.19726562 -0.08789062 C348.14279297 -0.07951172 349.08832031 -0.07113281 350.0625 -0.0625 C351.4865918 -0.05573242 351.4865918 -0.05573242 352.93945312 -0.04882812 C355.29303065 -0.0370011 357.64648477 -0.02052025 360 0 C359.34 1.98 358.68 3.96 358 6 C361.3 6 364.6 6 368 6 C367.67 7.65 367.34 9.3 367 11 C370.96 11.495 370.96 11.495 375 12 C375 8.04 375 4.08 375 0 C426.81 0 478.62 0 532 0 C532 1.98 532 3.96 532 6 C534.64 6 537.28 6 540 6 C540 7.98 540 9.96 540 12 C542.64 12 545.28 12 548 12 C548 17.94 548 23.88 548 30 C542.72 30.33 537.44 30.66 532 31 C532 32.98 532 34.96 532 37 C534.64 37 537.28 37 540 37 C540 38.98 540 40.96 540 43 C542.64 43 545.28 43 548 43 C548 48.94 548 54.88 548 61 C514.34 61 480.68 61 446 61 C446 65.29 446 69.58 446 74 C473.39 74 500.78 74 529 74 C529 75.98 529 77.96 529 80 C531.64 80 534.28 80 537 80 C537 81.98 537 83.96 537 86 C539.64 86 542.28 86 545 86 C545 91.94 545 97.88 545 104 C505.73 104 466.46 104 426 104 C426 102.02 426 100.04 426 98 C423.03 98 420.06 98 417 98 C417 96.02 417 94.04 417 92 C415.35 92 413.7 92 412 92 C412 96.29 412 100.58 412 105 C450.61 105 489.22 105 529 105 C529 106.98 529 108.96 529 111 C531.64 111 534.28 111 537 111 C537 112.98 537 114.96 537 117 C539.64 117 542.28 117 545 117 C545 122.94 545 128.88 545 135 C512.33 135 479.66 135 446 135 C446 139.62 446 144.24 446 149 C475.04 149 504.08 149 534 149 C534 150.98 534 152.96 534 155 C536.64 155 539.28 155 542 155 C542 156.98 542 158.96 542 161 C544.64 161 547.28 161 550 161 C550 166.94 550 172.88 550 179 C509.08 179 468.16 179 426 179 C426 177.02 426 175.04 426 173 C423.03 173 420.06 173 417 173 C417 171.02 417 169.04 417 167 C415.35 167 413.7 167 412 167 C412 171.29 412 175.58 412 180 C452.26 180 492.52 180 534 180 C534 181.98 534 183.96 534 186 C536.64 186 539.28 186 542 186 C542 187.98 542 189.96 542 192 C544.64 192 547.28 192 550 192 C550 197.94 550 203.88 550 210 C497.53 210 445.06 210 391 210 C391 208.02 391 206.04 391 204 C388.36 204 385.72 204 383 204 C383 202.02 383 200.04 383 198 C380.36 198 377.72 198 375 198 C374.67 139.26 374.34 80.52 374 20 C367.07 40.79 367.07 40.79 360 62 C353.52184934 80.98098143 353.52184934 80.98098143 351.11987305 87.98985291 C347.27763504 99.21049206 343.47953499 110.44591721 339.6875 121.68359375 C339.26431866 122.93759444 339.26431866 122.93759444 338.8325882 124.21692848 C336.24231813 131.89310554 333.65292284 139.56957719 331.06628418 147.24697876 C320.26324601 179.31123328 320.26324601 179.31123328 314.92661285 194.86858368 C314.28073868 196.75278407 313.63749941 198.63788702 312.99432373 200.52301025 C312.61237854 201.63271179 312.23043335 202.74241333 311.83691406 203.88574219 C311.50435608 204.85517761 311.1717981 205.82461304 310.8291626 206.82342529 C310 209 310 209 309 210 C307.58429877 210.08651611 306.164405 210.10704904 304.74609375 210.09765625 C303.89208984 210.09443359 303.03808594 210.09121094 302.15820312 210.08789062 C301.26037109 210.07951172 300.36253906 210.07113281 299.4375 210.0625 C298.53580078 210.05798828 297.63410156 210.05347656 296.70507812 210.04882812 C294.46998686 210.03700225 292.23502563 210.0205222 290 210 C290.66 208.02 291.32 206.04 292 204 C288.7 204 285.4 204 282 204 C282.33 202.35 282.66 200.7 283 199 C282.34 198.67 281.68 198.34 281 198 C281 198.66 281 199.32 281 200 C280.34 200 279.68 200 279 200 C279 199.34 279 198.68 279 198 C277.35 198 275.7 198 274 198 C274.66 194.7 275.32 191.4 276 188 C275.34 188 274.68 188 274 188 C273.87625 188.969375 273.7525 189.93875 273.625 190.9375 C273.315625 192.4534375 273.315625 192.4534375 273 194 C272.34 194.33 271.68 194.66 271 195 C269.02 188.565 269.02 188.565 267 182 C263.76206838 189.47969753 263.99646954 193.53776281 266.8125 201.0625 C268.3903125 205.4865625 268.3903125 205.4865625 270 210 C263.73 210 257.46 210 251 210 C250.34 208.02 249.68 206.04 249 204 C246.69 204 244.38 204 242 204 C241.67 202.02 241.34 200.04 241 198 C238.69 198 236.38 198 234 198 C231.10283029 189.45878626 228.20732124 180.91700992 225.3125 172.375 C225.08642941 171.70795673 224.86035881 171.04091347 224.62743759 170.35365677 C218.23534245 151.49255401 211.85905667 132.62617461 205.5 113.75390625 C204.85670592 111.8449703 204.21341063 109.93603475 203.57011414 108.02709961 C201.0300672 100.48922789 198.49012343 92.95132202 195.95278931 85.41253662 C188.71667482 63.91308281 181.44086577 42.42959591 174 21 C173.67 23.97 173.34 26.94 173 30 C164.585 30.495 164.585 30.495 156 31 C156 32.98 156 34.96 156 37 C158.64 37 161.28 37 164 37 C164 38.98 164 40.96 164 43 C166.97 43 169.94 43 173 43 C173 48.94 173 54.88 173 61 C139.34 61 105.68 61 71 61 C71 65.29 71 69.58 71 74 C98.39 74 125.78 74 154 74 C154 75.98 154 77.96 154 80 C156.64 80 159.28 80 162 80 C162 81.98 162 83.96 162 86 C164.64 86 167.28 86 170 86 C170 91.94 170 97.88 170 104 C130.4 104 90.8 104 50 104 C50 102.02 50 100.04 50 98 C47.36 98 44.72 98 42 98 C42 96.02 42 94.04 42 92 C40.35 92 38.7 92 37 92 C37 96.29 37 100.58 37 105 C75.61 105 114.22 105 154 105 C154 106.98 154 108.96 154 111 C156.64 111 159.28 111 162 111 C162 112.98 162 114.96 162 117 C164.64 117 167.28 117 170 117 C170 122.94 170 128.88 170 135 C137.33 135 104.66 135 71 135 C71 139.62 71 144.24 71 149 C100.04 149 129.08 149 159 149 C159 150.98 159 152.96 159 155 C161.64 155 164.28 155 167 155 C167 156.98 167 158.96 167 161 C169.64 161 172.28 161 175 161 C175 166.94 175 172.88 175 179 C133.75 179 92.5 179 50 179 C50 177.02 50 175.04 50 173 C47.36 173 44.72 173 42 173 C42 171.02 42 169.04 42 167 C40.35 167 38.7 167 37 167 C37 171.29 37 175.58 37 180 C77.26 180 117.52 180 159 180 C159 181.98 159 183.96 159 186 C161.64 186 164.28 186 167 186 C167 187.98 167 189.96 167 192 C169.64 192 172.28 192 175 192 C175 197.94 175 203.88 175 210 C122.53 210 70.06 210 16 210 C16 208.02 16 206.04 16 204 C13.36 204 10.72 204 8 204 C8 202.02 8 200.04 8 198 C5.36 198 2.72 198 0 198 C0 132.66 0 67.32 0 0 Z M218 52 C219 55 219 55 219 55 Z M219 55 C220 58 220 58 220 58 Z M220 58 C221 61 221 61 221 61 Z M221 61 C222 64 222 64 222 64 Z M222 64 C223 67 223 67 223 67 Z M223 67 C224 70 224 70 224 70 Z M224 70 C225 73 225 73 225 73 Z M225 73 C226 76 226 76 226 76 Z M226 76 C227 79 227 79 227 79 Z M227 79 C227.59578777 84.26621606 228.81308796 88.94408019 230.5625 93.9375 C230.91344727 94.96327148 230.91344727 94.96327148 231.27148438 96.00976562 C231.84211829 97.67508501 232.42027098 99.33782493 233 101 C234.08557892 97.74004193 233.91310151 95.89457573 232.78515625 92.671875 C232.51123047 91.87265625 232.23730469 91.0734375 231.95507812 90.25 C231.66052734 89.425 231.36597656 88.6 231.0625 87.75 C230.77181641 86.90953125 230.48113281 86.0690625 230.18164062 85.203125 C229.46378767 83.13194269 228.73633881 81.06466738 228 79 C227.67 79 227.34 79 227 79 Z M234 101 C235 104 235 104 235 104 Z M235 104 C236 107 236 107 236 107 Z M236 107 C237 110 237 110 237 110 Z M237 110 C238 113 238 113 238 113 Z M238 113 C239 116 239 116 239 116 Z M239 116 C240 119 240 119 240 119 Z M240 119 C241 122 241 122 241 122 Z M241 122 C242 125 242 125 242 125 Z M242 125 C243 128 243 128 243 128 Z M243 128 C244 131 244 131 244 131 Z M244 131 C245 134 245 134 245 134 Z M245 134 C246 137 246 137 246 137 Z M246 137 C247 140 247 140 247 140 Z M247 140 C248 143 248 143 248 143 Z M248 143 C249 146 249 146 249 146 Z M249 147 C250 149 250 149 250 149 Z M250 150 C251 152 251 152 251 152 Z M251 153 C252 155 252 155 252 155 Z M252 156 C253 158 253 158 253 158 Z M253 159 C254 161 254 161 254 161 Z M254 162 C255 164 255 164 255 164 Z M255 165 C256 167 256 167 256 167 Z M256 168 C257 170 257 170 257 170 Z M257 171 C258 173 258 173 258 173 Z M258 174 C259 176 259 176 259 176 Z M259 177 C260 179 260 179 260 179 Z M260 180 C261 182 261 182 261 182 Z M261 183 C262 185 262 185 262 185 Z M262 186 C263 188 263 188 263 188 Z " fill="#604CF5" transform="translate(38,88)"/>
<path d="M0 0 C19.51125 -0.061875 39.0225 -0.12375 59.125 -0.1875 C65.2623877 -0.21481201 71.39977539 -0.24212402 77.72314453 -0.27026367 C85.27709961 -0.28381348 85.27709961 -0.28381348 88.82492065 -0.28633118 C91.27765541 -0.29090698 93.73038385 -0.3013933 96.18307495 -0.31672668 C122.77478094 -0.4745105 122.77478094 -0.4745105 134 3 C135.33685349 3.40403801 135.33685349 3.40403801 136.70071411 3.8162384 C152.64718161 8.99186113 170.94548754 24.7014995 179 39 C180.24008369 41.94938824 181.2136979 44.90004639 182 48 C182.18304687 48.71671875 182.36609375 49.4334375 182.5546875 50.171875 C184.95368493 65.40761306 183.16260137 80.55308629 174.79296875 93.69921875 C171.68806738 97.68350395 167.93989614 100.86559374 164 104 C166.80922898 106.98480579 169.57797913 109.45890093 172.9375 111.8125 C182.43717305 118.80755115 187.09271255 129.16761967 189.4609375 140.44921875 C191.83812209 156.10763026 189.65224863 172.54934273 181 186 C170.78000756 199.62665659 156.74109391 207.3205655 140 210 C135.86276399 210.26675724 131.740066 210.2534913 127.59545898 210.22705078 C126.384702 210.22734283 125.17394501 210.22763489 123.92649841 210.22793579 C120.63367856 210.22678792 117.34103261 210.2168141 114.0482471 210.20278788 C110.59695627 210.19021586 107.14566139 210.18910495 103.6943512 210.18673706 C97.17099728 210.18054119 90.64771106 210.16415623 84.12438685 210.14403808 C76.69264832 210.12161987 69.26090642 210.11067081 61.82914245 210.10064721 C46.55272255 210.07978814 31.27637003 210.04464932 16 210 C16 208.02 16 206.04 16 204 C13.36 204 10.72 204 8 204 C8 202.02 8 200.04 8 198 C5.36 198 2.72 198 0 198 C0 132.66 0 67.32 0 0 Z M37 30 C37 30.33 37 30.66 37 31 C37.87759476 31.00364563 38.75518951 31.00729126 39.65937805 31.01104736 C47.97079508 31.04907282 56.2818255 31.10608928 64.59296894 31.18390274 C68.86480961 31.22324261 73.1364483 31.25549664 77.40844727 31.27099609 C81.53898169 31.28625237 85.66896034 31.3208542 89.79924583 31.36830902 C91.36706877 31.38303108 92.9349711 31.39103569 94.50286293 31.39188385 C107.71701144 31.40620797 117.63234615 33.42060677 128 42 C129.37032819 43.02709608 130.74534292 44.04796955 132.125 45.0625 C133.4177111 46.04028737 134.70943375 47.01938341 136 48 C136.57105469 48.42152344 137.14210938 48.84304687 137.73046875 49.27734375 C141.36291532 52.08464196 143.23357078 54.78019685 145 59 C145.33 59 145.66 59 146 59 C146.42256265 49.89142737 146.24174285 41.71526233 140.9375 34 C134.47213605 29.59805007 126.1176423 29.70583672 118.51123047 29.77294922 C117.17767769 29.77251114 117.17767769 29.77251114 115.81718445 29.77206421 C112.91708155 29.77344291 110.01724478 29.78893439 107.1171875 29.8046875 C105.09123881 29.80842283 103.06528831 29.81126735 101.03933716 29.81326294 C95.73591018 29.82085842 90.43259469 29.84047139 85.12921143 29.8626709 C79.70594795 29.8832178 74.28266627 29.89228349 68.859375 29.90234375 C58.23953465 29.92372148 47.61977664 29.95780753 37 30 Z M72 61 C72 64.96 72 68.92 72 73 C76.35454354 73.08114056 80.7075656 73.14057664 85.0625 73.1875 C86.29162109 73.21263672 87.52074219 73.23777344 88.78710938 73.26367188 C96.30251676 73.32444336 101.61205422 73.07156205 107.875 68.6875 C109.50678138 66.48989391 109.50678138 66.48989391 110 61 C97.46 61 84.92 61 72 61 Z M37 91 C37 95.29 37 99.58 37 104 C40.13193848 104.02187378 40.13193848 104.02187378 43.32714844 104.04418945 C50.2682452 104.09479354 57.20912368 104.16143203 64.15000534 104.23571491 C68.35340158 104.280218 72.55670536 104.31951673 76.76025391 104.34643555 C80.82588105 104.37267075 84.89114846 104.41321141 88.9565506 104.46318626 C90.49843073 104.47971964 92.04037288 104.49131733 93.5823288 104.49761391 C110.39898108 104.57315379 121.63877251 107.76347323 134.76953125 118.25 C136.86254131 119.8921515 139.0097404 121.41099423 141.1875 122.9375 C146.30996021 126.74100339 149.50218055 131.75327083 153 137 C152.70503728 129.24248038 152.12987023 120.1895792 146.37890625 114.35546875 C142.99732193 112.42868754 139.52487662 111.66951704 135.75 110.8125 C135.00492188 110.63525391 134.25984375 110.45800781 133.4921875 110.27539062 C131.66347729 109.84165807 129.83199221 109.41965403 128 109 C129.65 108.34 131.3 107.68 133 107 C123.85969182 102.18294186 114.06966936 102.73237769 104.02734375 102.8046875 C102.49321173 102.80842435 100.95907729 102.81126814 99.42494202 102.81326294 C95.41530602 102.82084658 91.40581825 102.84044885 87.39624023 102.8626709 C83.29347742 102.88324378 79.19069032 102.89228897 75.08789062 102.90234375 C67.05852624 102.9237005 59.02928163 102.95777162 51 103 C51 101.02 51 99.04 51 97 C48.36 97 45.72 97 43 97 C43 95.02 43 93.04 43 91 C41.02 91 39.04 91 37 91 Z M72 134 C72 138.95 72 143.9 72 149 C76.41141001 149.06924888 80.82089937 149.12886267 85.23242188 149.16479492 C86.72988307 149.17978888 88.22730105 149.20019105 89.72460938 149.22631836 C103.0697702 149.81353929 103.0697702 149.81353929 114.4375 143.6875 C116.16956043 140.70835606 116.76637918 138.42643872 117 135 C116.02366535 133.80428614 116.02366535 133.80428614 114.20933533 133.87974548 C113.42990067 133.88196609 112.650466 133.88418671 111.84741211 133.88647461 C110.96657455 133.88655014 110.085737 133.88662567 109.1782074 133.88670349 C107.74227989 133.89444542 107.74227989 133.89444542 106.27734375 133.90234375 C104.81452721 133.90446617 104.81452721 133.90446617 103.32215881 133.90663147 C100.19390857 133.91224867 97.06572877 133.92480407 93.9375 133.9375 C91.82226666 133.94251278 89.70703219 133.94707607 87.59179688 133.95117188 C82.39450393 133.96222369 77.19726392 133.97949984 72 134 Z M37 167 C37 171.29 37 175.58 37 180 C63.73 180 90.46 180 118 180 C118 179.67 118 179.34 118 179 C95.89 179 73.78 179 51 179 C51 177.02 51 175.04 51 173 C48.36 173 45.72 173 43 173 C43 171.02 43 169.04 43 167 C41.02 167 39.04 167 37 167 Z " fill="#604CF5" transform="translate(997,88)"/>
<path d="M0 0 C6.93 0 13.86 0 21 0 C21 1.98 21 3.96 21 6 C23.64 6 26.28 6 29 6 C29 7.98 29 9.96 29 12 C30.65 12 32.3 12 34 12 C34 8.04 34 4.08 34 0 C40.93 0 47.86 0 55 0 C55 1.98 55 3.96 55 6 C57.64 6 60.28 6 63 6 C63 7.98 63 9.96 63 12 C65.64 12 68.28 12 71 12 C71 32.13 71 52.26 71 73 C85.85 73 100.7 73 116 73 C116 48.91 116 24.82 116 0 C122.93 0 129.86 0 137 0 C137 1.98 137 3.96 137 6 C139.64 6 142.28 6 145 6 C145 7.98 145 9.96 145 12 C146.98 12 148.96 12 151 12 C151 8.04 151 4.08 151 0 C157.6 0 164.2 0 171 0 C171 1.98 171 3.96 171 6 C173.64 6 176.28 6 179 6 C179 7.98 179 9.96 179 12 C181.97 12 184.94 12 188 12 C188 77.34 188 142.68 188 210 C181.07 210 174.14 210 167 210 C167 208.02 167 206.04 167 204 C164.36 204 161.72 204 159 204 C159 202.02 159 200.04 159 198 C157.02 198 155.04 198 153 198 C153 201.96 153 205.92 153 210 C146.07 210 139.14 210 132 210 C132 208.02 132 206.04 132 204 C129.36 204 126.72 204 124 204 C124 202.02 124 200.04 124 198 C121.36 198 118.72 198 116 198 C116 177.21 116 156.42 116 135 C101.15 135 86.3 135 71 135 C71 159.75 71 184.5 71 210 C64.4 210 57.8 210 51 210 C51 208.02 51 206.04 51 204 C48.03 204 45.06 204 42 204 C42 202.02 42 200.04 42 198 C40.35 198 38.7 198 37 198 C37 201.96 37 205.92 37 210 C30.07 210 23.14 210 16 210 C16 208.02 16 206.04 16 204 C13.36 204 10.72 204 8 204 C8 202.02 8 200.04 8 198 C5.36 198 2.72 198 0 198 C0 132.66 0 67.32 0 0 Z M37 92 C37 96.29 37 100.58 37 105 C70 105 103 105 137 105 C137 106.98 137 108.96 137 111 C139.64 111 142.28 111 145 111 C145 112.98 145 114.96 145 117 C146.98 117 148.96 117 151 117 C151 112.71 151 108.42 151 104 C118 104 85 104 51 104 C51 102.02 51 100.04 51 98 C48.03 98 45.06 98 42 98 C42 96.02 42 94.04 42 92 C40.35 92 38.7 92 37 92 Z " fill="#614CF5" transform="translate(595,88)"/>
<path d="M0 0 C6.93 0 13.86 0 21 0 C21 1.98 21 3.96 21 6 C23.64 6 26.28 6 29 6 C29 7.98 29 9.96 29 12 C30.98 12 32.96 12 35 12 C35 8.04 35 4.08 35 0 C41.6 0 48.2 0 55 0 C55 1.98 55 3.96 55 6 C57.97 6 60.94 6 64 6 C64 7.98 64 9.96 64 12 C66.64 12 69.28 12 72 12 C72.00423194 12.68506937 72.00846388 13.37013874 72.01282406 14.07596779 C72.11616736 30.75182365 72.2248106 47.42763572 72.33933926 64.10341835 C72.39459706 72.16772662 72.44806672 80.23203932 72.49731445 88.29638672 C72.54024759 95.325969 72.58654838 102.35551969 72.63687855 109.38505304 C72.66340607 113.10648045 72.68825704 116.8279019 72.70907402 120.549366 C72.7323864 124.70564675 72.76321784 128.86183934 72.79467773 133.01806641 C72.8004332 134.24949371 72.80618866 135.48092102 72.81211853 136.74966431 C72.82190735 137.88540894 72.83169617 139.02115356 72.84178162 140.1913147 C72.84823417 141.17394602 72.85468672 142.15657734 72.8613348 143.16898537 C73.00860091 146.1755977 73.45033498 149.04262491 74 152 C93.5238757 153.26101915 93.5238757 153.26101915 111 146 C117.44104782 137.90268274 117.30125348 129.92056064 117.31884766 119.99633789 C117.32889328 118.69809082 117.3389389 117.39984375 117.34928894 116.06225586 C117.37648345 112.51940733 117.39170685 108.97659834 117.40471697 105.43367314 C117.42039392 101.72473342 117.44716949 98.01587386 117.4727478 94.30699158 C117.51945503 87.29135184 117.556238 80.27569689 117.58942068 73.25998157 C117.62769914 65.26959514 117.67709423 57.27928939 117.72740483 49.28897107 C117.8306048 32.85937109 117.91950954 16.42972711 118 0 C124.93 0 131.86 0 139 0 C139 1.98 139 3.96 139 6 C141.64 6 144.28 6 147 6 C147 7.98 147 9.96 147 12 C148.98 12 150.96 12 153 12 C153 8.04 153 4.08 153 0 C159.6 0 166.2 0 173 0 C173 1.98 173 3.96 173 6 C175.97 6 178.94 6 182 6 C182 7.98 182 9.96 182 12 C184.64 12 187.28 12 190 12 C190.0469282 28.78666728 190.08209008 45.57331295 190.10362434 62.36003017 C190.11389327 70.15613956 190.12786866 77.95220796 190.15087891 85.74829102 C190.1709482 92.55125381 190.1837482 99.35418688 190.18817699 106.15717846 C190.1907617 109.75213084 190.19674285 113.34699827 190.21146011 116.94192314 C190.43014028 172.65790573 190.43014028 172.65790573 170.40234375 193.71875 C152.45351512 210.76284093 127.33289441 214.22989557 103.625 214.25 C102.91135284 214.25067474 102.19770569 214.25134949 101.46243286 214.25204468 C76.34842101 214.21434177 54.24919659 209.51665692 34.5 193.02734375 C31.89607867 190.91572629 29.19592574 189.02907999 26.4375 187.125 C11.68837717 176.39080059 4.47034622 161.51965108 1 144 C-0.03702525 136.50454645 -0.13562336 129.14570629 -0.11352539 121.58569336 C-0.11367142 120.26764709 -0.11381744 118.94960083 -0.1139679 117.59161377 C-0.11425302 114.00340429 -0.10840259 110.41522873 -0.10139394 106.82702708 C-0.09511274 103.06743085 -0.09455285 99.3078337 -0.09336853 95.54823303 C-0.09026921 88.44054068 -0.08207479 81.33286384 -0.07201904 74.2251783 C-0.06081432 66.1283906 -0.0553365 58.03160214 -0.05032361 49.93480861 C-0.03989092 33.28986309 -0.02211562 16.64493414 0 0 Z M37 145 C38 147 38 147 38 147 Z M38 148 C38.18551143 156.56725497 40.24737039 163.3262095 44 171 C44.556875 172.155 45.11375 173.31 45.6875 174.5 C53.27231174 182.69979648 68.30631866 183.67721475 78.96777344 184.12451172 C85.31414314 184.24597814 91.65527272 184.17420752 98 184 C98 183.67 98 183.34 98 183 C96.15148437 182.76216797 96.15148437 182.76216797 94.265625 182.51953125 C75.81961062 179.99754225 64.32956328 173.65042881 50 162 C49.42588379 161.55438721 48.85176758 161.10877441 48.26025391 160.6496582 C45.06507173 158.12484548 42.9669841 155.8172922 41.125 152.1875 C40.71507812 151.39730469 40.30515625 150.60710937 39.8828125 149.79296875 C39.59148438 149.20128906 39.30015625 148.60960937 39 148 C38.67 148 38.34 148 38 148 Z " fill="#614CF5" transform="translate(795,88)"/>
<path d="M0 0 C2.97 0 5.94 0 9 0 C9 1.98 9 3.96 9 6 C11.64 6 14.28 6 17 6 C17 11.94 17 17.88 17 24 C11.72 24.33 6.44 24.66 1 25 C1 26.98 1 28.96 1 31 C3.64 31 6.28 31 9 31 C9 32.98 9 34.96 9 37 C11.64 37 14.28 37 17 37 C17 42.94 17 48.88 17 55 C-16.66 55 -50.32 55 -85 55 C-85 59.29 -85 63.58 -85 68 C-57.61 68 -30.22 68 -2 68 C-2 69.98 -2 71.96 -2 74 C0.64 74 3.28 74 6 74 C6 75.98 6 77.96 6 80 C8.64 80 11.28 80 14 80 C14 85.94 14 91.88 14 98 C-25.27 98 -64.54 98 -105 98 C-105 96.02 -105 94.04 -105 92 C-107.97 92 -110.94 92 -114 92 C-114 90.02 -114 88.04 -114 86 C-115.65 86 -117.3 86 -119 86 C-119 90.29 -119 94.58 -119 99 C-80.39 99 -41.78 99 -2 99 C-2 100.98 -2 102.96 -2 105 C0.64 105 3.28 105 6 105 C6 106.98 6 108.96 6 111 C8.64 111 11.28 111 14 111 C14 116.94 14 122.88 14 129 C-18.67 129 -51.34 129 -85 129 C-85 133.62 -85 138.24 -85 143 C-55.96 143 -26.92 143 3 143 C3 144.98 3 146.96 3 149 C5.64 149 8.28 149 11 149 C11 150.98 11 152.96 11 155 C13.64 155 16.28 155 19 155 C19 160.94 19 166.88 19 173 C-21.92 173 -62.84 173 -105 173 C-105 171.02 -105 169.04 -105 167 C-107.97 167 -110.94 167 -114 167 C-114 165.02 -114 163.04 -114 161 C-115.65 161 -117.3 161 -119 161 C-118.98839844 161.92683594 -118.97679687 162.85367188 -118.96484375 163.80859375 C-118.95582031 165.00613281 -118.94679688 166.20367187 -118.9375 167.4375 C-118.92589844 168.63246094 -118.91429687 169.82742188 -118.90234375 171.05859375 C-119 174 -119 174 -120 175 C-125.28 175 -130.56 175 -136 175 C-136 121.21 -136 67.42 -136 12 C-91.12 12 -46.24 12 0 12 C0 8.04 0 4.08 0 0 Z " fill="#604CF5" transform="translate(569,94)"/>
<path d="M0 0 C6.93 0 13.86 0 21 0 C20.99333817 1.64545303 20.98667633 3.29090607 20.97981262 4.98622131 C20.91884614 20.53649919 20.8737722 36.08673966 20.84456348 51.6371088 C20.82914742 59.63059885 20.80815958 67.6239992 20.77368164 75.61743164 C20.74361703 82.59104062 20.72438686 89.56458459 20.71773452 96.53825659 C20.71385089 100.22485153 20.70483615 103.9112606 20.68280983 107.59779549 C20.65832068 111.73072395 20.65804083 115.86333694 20.65942383 119.99633789 C20.648638 121.19540771 20.63785217 122.39447754 20.6267395 123.62988281 C20.68467596 139.75935066 23.68642778 156.80190925 35.3046875 168.74609375 C52.83467404 183.40522742 78.45038975 184.22652153 100.17138672 182.86376953 C114.7629073 181.5527981 130.0692393 177.39116669 140 166 C140.680625 165.236875 141.36125 164.47375 142.0625 163.6875 C151.26040748 150.92911221 152.13379793 136.00486098 152.20532227 120.79101562 C152.21522186 119.48286896 152.22512146 118.17472229 152.23532104 116.82693481 C152.26219773 113.26142564 152.28329982 109.69590347 152.30332303 106.13035011 C152.32528979 102.39608049 152.35262585 98.66185015 152.37937927 94.9276123 C152.42916237 87.86595641 152.47415415 80.80427855 152.51740164 73.74257994 C152.56689746 65.69899068 152.62176954 57.65544087 152.67708123 49.61188984 C152.79068029 33.07462942 152.89737613 16.53733221 153 0 C159.6 0 166.2 0 173 0 C173 1.98 173 3.96 173 6 C175.97 6 178.94 6 182 6 C182 7.98 182 9.96 182 12 C184.64 12 187.28 12 190 12 C190.0469282 28.78666728 190.08209008 45.57331295 190.10362434 62.36003017 C190.11389327 70.15613956 190.12786866 77.95220796 190.15087891 85.74829102 C190.1709482 92.55125381 190.1837482 99.35418688 190.18817699 106.15717846 C190.1907617 109.75213084 190.19674285 113.34699827 190.21146011 116.94192314 C190.43014028 172.65790573 190.43014028 172.65790573 170.40234375 193.71875 C152.45351512 210.76284093 127.33289441 214.22989557 103.625 214.25 C102.91135284 214.25067474 102.19770569 214.25134949 101.46243286 214.25204468 C76.34842101 214.21434177 54.24919659 209.51665692 34.5 193.02734375 C31.89607867 190.91572629 29.19592574 189.02907999 26.4375 187.125 C11.68837717 176.39080059 4.47034622 161.51965108 1 144 C-0.03702525 136.50454645 -0.13562336 129.14570629 -0.11352539 121.58569336 C-0.11367142 120.26764709 -0.11381744 118.94960083 -0.1139679 117.59161377 C-0.11425302 114.00340429 -0.10840259 110.41522873 -0.10139394 106.82702708 C-0.09511274 103.06743085 -0.09455285 99.3078337 -0.09336853 95.54823303 C-0.09026921 88.44054068 -0.08207479 81.33286384 -0.07201904 74.2251783 C-0.06081432 66.1283906 -0.0553365 58.03160214 -0.05032361 49.93480861 C-0.03989092 33.28986309 -0.02211562 16.64493414 0 0 Z " fill="#614CF5" transform="translate(795,88)"/>
<path d="M0 0 C51.48 0 102.96 0 156 0 C156 5.94 156 11.88 156 18 C111.12 18 66.24 18 20 18 C20 71.46 20 124.92 20 180 C65.87 180 111.74 180 159 180 C159 181.98 159 183.96 159 186 C161.64 186 164.28 186 167 186 C167 187.98 167 189.96 167 192 C169.64 192 172.28 192 175 192 C175 197.94 175 203.88 175 210 C122.53 210 70.06 210 16 210 C16 208.02 16 206.04 16 204 C13.36 204 10.72 204 8 204 C8 202.02 8 200.04 8 198 C5.36 198 2.72 198 0 198 C0 132.66 0 67.32 0 0 Z " fill="#614CF5" transform="translate(38,88)"/>
<path d="M0 0 C51.81 0 103.62 0 157 0 C156.67 5.94 156.34 11.88 156 18 C111.12 18 66.24 18 20 18 C20 71.79 20 125.58 20 181 C25.28 180.67 30.56 180.34 36 180 C40.37539656 179.92020156 44.73323539 179.87208126 49.10742188 179.88647461 C50.91046028 179.88625557 50.91046028 179.88625557 52.74992371 179.8860321 C56.65621861 179.88671936 60.56246361 179.8944551 64.46875 179.90234375 C67.20357232 179.90477427 69.93839459 179.90568336 72.67321777 179.90663147 C79.09360814 179.90971574 85.51398108 179.91788918 91.93436384 179.92798096 C99.25502847 179.93923331 106.57569402 179.94467533 113.89636517 179.94967639 C128.93091975 179.96007487 143.96545812 179.97761689 159 180 C159 181.98 159 183.96 159 186 C161.64 186 164.28 186 167 186 C167 187.98 167 189.96 167 192 C169.64 192 172.28 192 175 192 C175 197.94 175 203.88 175 210 C122.53 210 70.06 210 16 210 C16 208.02 16 206.04 16 204 C13.36 204 10.72 204 8 204 C8 202.02 8 200.04 8 198 C5.36 198 2.72 198 0 198 C0 132.66 0 67.32 0 0 Z " fill="#614CF5" transform="translate(413,88)"/>
<path d="M0 0 C15.241875 -0.0825 30.48375 -0.165 46.1875 -0.25 C50.97660889 -0.28641602 55.76571777 -0.32283203 60.69995117 -0.36035156 C66.60803223 -0.37841797 66.60803223 -0.37841797 69.38545227 -0.3817749 C71.29991896 -0.38786407 73.21437159 -0.40182045 75.1287384 -0.42230225 C89.70276199 -0.57025508 104.54919968 -0.53374489 116 10 C117.7421875 12.69140625 117.7421875 12.69140625 119 15 C118.35417969 14.855625 117.70835938 14.71125 117.04296875 14.5625 C107.34702317 12.65249157 97.83223576 12.81487422 88 13 C88.70125 13.21914062 89.4025 13.43828125 90.125 13.6640625 C96.76615087 15.88379499 101.63575864 18.56291147 107 23 C108.34982435 24.00585366 109.704022 25.00586476 111.0625 26 C123.25370549 35.21539942 123.25370549 35.21539942 125 41 C125.63597172 50.53957586 122.10557538 59.09927365 116.0234375 66.359375 C110.45852918 71.74215904 104.20357245 74.40429931 97 77 C95.33114117 77.66115992 93.66371926 78.32601154 92 79 C92.94359375 79.21914062 93.8871875 79.43828125 94.859375 79.6640625 C106.96657478 82.60014956 117.0618612 85.95332009 125 96 C122.03953084 95.38398318 119.0819142 94.75766298 116.125 94.125 C115.28324219 93.95097656 114.44148438 93.77695313 113.57421875 93.59765625 C112.76855469 93.42363281 111.96289062 93.24960938 111.1328125 93.0703125 C110.38918457 92.91320801 109.64555664 92.75610352 108.87939453 92.59423828 C107 92 107 92 105 90 C105.99 89.34 106.98 88.68 108 88 C99.71714192 85.69583743 91.55876304 85.65215708 83.02734375 85.5859375 C81.49319959 85.56719669 79.95906542 85.54762118 78.42494202 85.5272522 C74.41543507 85.47623222 70.40589482 85.43644664 66.39624023 85.39910889 C62.2933753 85.35887873 58.1906453 85.30787378 54.08789062 85.2578125 C46.05868642 85.16141074 38.02941463 85.07689332 30 85 C30 83.02 30 81.04 30 79 C27.36 79 24.72 79 22 79 C22 77.02 22 75.04 22 73 C20.02 73 18.04 73 16 73 C16 77.29 16 81.58 16 86 C15.34 86 14.68 86 14 86 C14 106.79 14 127.58 14 149 C14.66 149 15.32 149 16 149 C16 153.29 16 157.58 16 162 C10.72 162 5.44 162 0 162 C0 108.54 0 55.08 0 0 Z M51 43 C51 46.96 51 50.92 51 55 C55.35454354 55.08114056 59.7075656 55.14057664 64.0625 55.1875 C65.29162109 55.21263672 66.52074219 55.23777344 67.78710938 55.26367188 C75.30251676 55.32444336 80.61205422 55.07156205 86.875 50.6875 C88.50678138 48.48989391 88.50678138 48.48989391 89 43 C76.46 43 63.92 43 51 43 Z " fill="#604CF5" transform="translate(1018,106)"/>
<path d="M0 0 C39.6 0 79.2 0 120 0 C120 1.98 120 3.96 120 6 C122.64 6 125.28 6 128 6 C128 7.98 128 9.96 128 12 C130.64 12 133.28 12 136 12 C136 17.94 136 23.88 136 30 C103.33 30 70.66 30 37 30 C37 34.62 37 39.24 37 44 C66.04 44 95.08 44 125 44 C125 45.98 125 47.96 125 50 C127.64 50 130.28 50 133 50 C133 51.98 133 53.96 133 56 C135.64 56 138.28 56 141 56 C141 61.94 141 67.88 141 74 C99.75 74 58.5 74 16 74 C16 72.02 16 70.04 16 68 C13.36 68 10.72 68 8 68 C8 66.02 8 64.04 8 62 C5.36 62 2.72 62 0 62 C0 41.54 0 21.08 0 0 Z " fill="#604CF5" transform="translate(72,193)"/>
<path d="M0 0 C39.27 0 78.54 0 119 0 C119 1.98 119 3.96 119 6 C121.64 6 124.28 6 127 6 C127 7.98 127 9.96 127 12 C129.64 12 132.28 12 135 12 C135 17.94 135 23.88 135 30 C102.33 30 69.66 30 36 30 C36 34.62 36 39.24 36 44 C65.04 44 94.08 44 124 44 C124 45.98 124 47.96 124 50 C126.64 50 129.28 50 132 50 C132 51.98 132 53.96 132 56 C134.64 56 137.28 56 140 56 C140 61.94 140 67.88 140 74 C99.08 74 58.16 74 16 74 C16 72.02 16 70.04 16 68 C13.03 68 10.06 68 7 68 C7 66.02 7 64.04 7 62 C4.69 62 2.38 62 0 62 C0 41.54 0 21.08 0 0 Z " fill="#604CF5" transform="translate(448,193)"/>
<path d="M0 0 C2.97 0 5.94 0 9 0 C9 1.98 9 3.96 9 6 C11.64 6 14.28 6 17 6 C17.0469282 22.78666728 17.08209008 39.57331295 17.10362434 56.36003017 C17.11389327 64.15613956 17.12786866 71.95220796 17.15087891 79.74829102 C17.1709482 86.55125381 17.1837482 93.35418688 17.18817699 100.15717846 C17.1907617 103.75213084 17.19674285 107.34699827 17.21146011 110.94192314 C17.43014028 166.65790573 17.43014028 166.65790573 -2.59765625 187.71875 C-20.54648488 204.76284093 -45.66710559 208.22989557 -69.375 208.25 C-70.08864716 208.25067474 -70.80229431 208.25134949 -71.53756714 208.25204468 C-98.14573151 208.21209865 -120.323173 202.61189911 -141 185 C-137.58527921 185 -135.95817769 185.82435238 -132.875 187.25 C-127.73640704 189.45046803 -122.67639768 190.98904486 -117.25 192.25 C-116.55374512 192.41274414 -115.85749023 192.57548828 -115.14013672 192.74316406 C-88.18477915 198.75593859 -54.49039318 197.18395931 -30.203125 182.859375 C-13.96339661 172.5395027 -6.21147046 157.29498997 -2 139 C-1.25052559 135.03012067 -0.86849858 131.26735737 -0.84178162 127.22927856 C-0.8319928 126.10194809 -0.82220398 124.97461761 -0.81211853 123.81312561 C-0.80636307 122.59104904 -0.8006076 121.36897247 -0.79467773 120.10986328 C-0.78477814 118.81176224 -0.77487854 117.51366119 -0.76467896 116.17622375 C-0.73773629 112.62919094 -0.71666943 109.08214496 -0.69667697 105.53506708 C-0.67475148 101.82347394 -0.64739501 98.11192087 -0.62062073 94.40036011 C-0.57078234 87.37759558 -0.52581081 80.3548087 -0.48259836 73.33200061 C-0.43315014 65.33440558 -0.37826023 57.33685076 -0.32291877 49.33929467 C-0.20923471 32.89290023 -0.10236631 16.44646886 0 0 Z " fill="#0056FE" transform="translate(968,94)"/>
<path d="M0 0 C13.73050175 8.75568228 24.9449802 17.46799621 29 34 C29.27263672 35.07121094 29.27263672 35.07121094 29.55078125 36.1640625 C31.96368981 51.39685912 30.16055539 66.55629989 21.79296875 79.69921875 C18.68806738 83.68350395 14.93989614 86.86559374 11 90 C13.80922898 92.98480579 16.57797913 95.45890093 19.9375 97.8125 C29.43717305 104.80755115 34.09271255 115.16761967 36.4609375 126.44921875 C38.83812209 142.10763026 36.65224863 158.54934273 28 172 C17.78000756 185.62665659 3.74109391 193.3205655 -13 196 C-17.13723601 196.26675724 -21.259934 196.2534913 -25.40454102 196.22705078 C-26.615298 196.22734283 -27.82605499 196.22763489 -29.07350159 196.22793579 C-32.36632144 196.22678792 -35.65896739 196.2168141 -38.9517529 196.20278788 C-42.40304373 196.19021586 -45.85433861 196.18910495 -49.3056488 196.18673706 C-55.82900272 196.18054119 -62.35228894 196.16415623 -68.87561315 196.14403808 C-76.30735168 196.12161987 -83.73909358 196.11067081 -91.17085755 196.10064721 C-106.44727745 196.07978814 -121.72362997 196.04464932 -137 196 C-137 194.02 -137 192.04 -137 190 C-139.64 190 -142.28 190 -145 190 C-145 188.02 -145 186.04 -145 184 C-144.42961156 183.99761165 -143.85922312 183.99522329 -143.27155018 183.99276257 C-129.33873025 183.93340952 -115.40608243 183.85754684 -101.47344685 183.76428509 C-94.73548773 183.71947978 -87.99757966 183.68003082 -81.25952148 183.65356445 C-74.74954754 183.62743966 -68.23980249 183.58697237 -61.72997093 183.53681374 C-59.25388639 183.52020699 -56.77776232 183.50865435 -54.30163002 183.50238609 C-32.99062147 183.44300911 -12.0874239 182.13900948 4.37890625 166.78125 C15.27644313 155.4348854 19.60342841 141.08921852 19.4375 125.5625 C19.42505249 124.05091309 19.42505249 124.05091309 19.41235352 122.50878906 C19.11920457 109.60188946 15.06490593 98.86470661 6.34375 89.15625 C1.86423515 85.01481175 -3.48633617 82.50721937 -9 80 C-7.13740395 78.05979578 -5.26339297 76.21127479 -3.1640625 74.52734375 C5.63221483 67.39932591 9.794962 59.00113506 12 48 C12.40866136 43.98816973 12.46599067 40.03013458 12.4375 36 C12.45748047 34.99710938 12.47746094 33.99421875 12.49804688 32.9609375 C12.49134802 22.59110546 9.40547267 14.34178207 3.3671875 5.97265625 C2.03248086 4.04686524 0.99496215 2.11784801 0 0 Z " fill="#0056FE" transform="translate(1150,102)"/>
<path d="M0 0 C2.97 0 5.94 0 9 0 C9 1.98 9 3.96 9 6 C11.64 6 14.28 6 17 6 C17 11.94 17 17.88 17 24 C-28.54 24.33 -74.08 24.66 -121 25 C-121 45.13 -121 65.26 -121 86 C-120.34 86 -119.68 86 -119 86 C-119 90.29 -119 94.58 -119 99 C-119.66 99 -120.32 99 -121 99 C-121 119.46 -121 139.92 -121 161 C-120.34 161 -119.68 161 -119 161 C-118.97314062 163.14576637 -118.95366912 165.29162645 -118.9375 167.4375 C-118.92589844 168.63246094 -118.91429687 169.82742188 -118.90234375 171.05859375 C-119 174 -119 174 -120 175 C-125.28 175 -130.56 175 -136 175 C-136 121.21 -136 67.42 -136 12 C-91.12 12 -46.24 12 0 12 C0 8.04 0 4.08 0 0 Z " fill="#0156FE" transform="translate(569,94)"/>
<path d="M0 0 C3.63 0 7.26 0 11 0 C10.67 1.65 10.34 3.3 10 5 C12.64 5.33 15.28 5.66 18 6 C17.43795301 11.84734743 16.23618998 16.98280131 14.33203125 22.52734375 C14.06152451 23.33456879 13.79101776 24.14179382 13.51231384 24.97348022 C12.61970202 27.63068575 11.71621154 30.28405099 10.8125 32.9375 C10.16966135 34.8431455 9.52742017 36.74899265 8.88574219 38.6550293 C6.93494023 44.44048253 4.96954089 50.22090302 3 56 C2.72565125 56.80546265 2.45130249 57.61092529 2.16864014 58.4407959 C-0.17940296 65.33271176 -2.53342105 72.22257367 -4.89428711 79.11010742 C-9.06628677 91.29030547 -13.19605656 103.4845344 -17.3125 115.68359375 C-17.5946209 116.51959421 -17.87674179 117.35559467 -18.1674118 118.21692848 C-20.75768187 125.89310554 -23.34707716 133.56957719 -25.93371582 141.24697876 C-36.73675399 173.31123328 -36.73675399 173.31123328 -42.07338715 188.86858368 C-42.71926132 190.75278407 -43.36250059 192.63788702 -44.00567627 194.52301025 C-44.38762146 195.63271179 -44.76956665 196.74241333 -45.16308594 197.88574219 C-45.66192291 199.33989532 -45.66192291 199.33989532 -46.1708374 200.82342529 C-47 203 -47 203 -48 204 C-49.41570123 204.08651611 -50.835595 204.10704904 -52.25390625 204.09765625 C-53.10791016 204.09443359 -53.96191406 204.09121094 -54.84179688 204.08789062 C-55.73962891 204.07951172 -56.63746094 204.07113281 -57.5625 204.0625 C-58.46419922 204.05798828 -59.36589844 204.05347656 -60.29492188 204.04882812 C-62.53001314 204.03700225 -64.76497437 204.0205222 -67 204 C-66.34 202.02 -65.68 200.04 -65 198 C-68.3 198 -71.6 198 -75 198 C-74.34 196.02 -73.68 194.04 -73 192 C-70.36 191.67 -67.72 191.34 -65 191 C-55.65678061 163.57169557 -46.34650151 136.13241665 -37.07068634 108.68125534 C-36.31180558 106.43544495 -35.55285668 104.1896576 -34.79388428 101.94387817 C-30.13183846 88.14899087 -25.47037716 74.35390627 -20.81103516 60.55810547 C-18.48507634 53.67124388 -16.15811141 46.7847231 -13.83002186 39.8985815 C-12.3766277 35.59949237 -10.924423 31.30000401 -9.47313595 27.00020313 C-8.37123275 23.7367353 -7.26751221 20.47388274 -6.1640625 17.2109375 C-5.76939285 16.04046371 -5.37472321 14.86998993 -4.96809387 13.66404724 C-4.60431137 12.58945755 -4.24052887 11.51486786 -3.86572266 10.40771484 C-3.55172516 9.47825043 -3.23772766 8.54878601 -2.91421509 7.59115601 C-2.012399 5.03514243 -1.00663164 2.51657911 0 0 Z " fill="#0056FE" transform="translate(395,94)"/>
<path d="M0 0 C2.64 0 5.28 0 8 0 C8 1.98 8 3.96 8 6 C10.64 6 13.28 6 16 6 C18.68741925 11.3748385 17 17.99074787 17 24 C-28.87 24.33 -74.74 24.66 -122 25 C-122 45.13 -122 65.26 -122 86 C-121.01 86 -120.02 86 -119 86 C-119 90.29 -119 94.58 -119 99 C-119.99 99 -120.98 99 -122 99 C-122 119.46 -122 139.92 -122 161 C-121.01 161 -120.02 161 -119 161 C-119 165.29 -119 169.58 -119 174 C-124.61 174 -130.22 174 -136 174 C-136 120.54 -136 67.08 -136 12 C-91.12 12 -46.24 12 0 12 C0 8.04 0 4.08 0 0 Z " fill="#0056FE" transform="translate(194,94)"/>
<path d="M0 0 C6.93 0 13.86 0 21 0 C20.67 65.34 20.34 130.68 20 198 C13.4 198 6.8 198 0 198 C0 132.66 0 67.32 0 0 Z " fill="#624CF5" transform="translate(595,88)"/>
<path d="M0 0 C6.6 0 13.2 0 20 0 C20.85916016 2.65039307 21.71832031 5.30078613 22.60351562 8.03149414 C31.04294645 34.01838546 39.62632772 59.9553463 48.28125 85.87109375 C48.82187683 87.49023808 49.36249571 89.10938507 49.90310669 90.7285347 C54.62565631 104.87191291 59.35175238 119.0141058 64.0809226 133.15527159 C66.87887128 141.52171595 69.67514188 149.88871673 72.46811056 158.25682503 C74.03786645 162.95958281 75.61030602 167.66143159 77.18480873 172.36260211 C78.15144088 175.25081992 79.1155929 178.13986091 80.07902336 181.0291481 C80.52627128 182.3687379 80.97455711 183.70798167 81.42393684 185.04685783 C82.03451996 186.86649469 82.64109556 188.68747484 83.24743652 190.50852966 C83.58799828 191.52707252 83.92856003 192.54561537 84.27944183 193.59502316 C85 196 85 196 85 198 C78.73 198 72.46 198 66 198 C63.10295203 189.45874494 60.20724501 180.9170358 57.3125 172.375 C57.08554569 171.7053056 56.85859138 171.03561119 56.62475967 170.34562302 C50.30539876 151.6976247 43.99984873 133.04500898 37.7109375 114.38671875 C37.40220829 113.47081026 37.09347908 112.55490177 36.77539444 111.61123848 C33.95134029 103.23289638 31.1276986 94.85441547 28.3057251 86.47537231 C19.49452836 60.30843123 19.49452836 60.30843123 10.59375 34.171875 C10.20326981 33.03088852 9.81278961 31.88990204 9.41047668 30.71434021 C7.68468452 25.6739102 5.95393964 20.63528702 4.21362305 15.59985352 C3.63577953 13.91687248 3.05805206 12.2338516 2.48046875 10.55078125 C2.22265625 9.81152405 1.96484375 9.07226685 1.69921875 8.31060791 C0.70568584 5.4043749 0 3.09590253 0 0 Z " fill="#604CF5" transform="translate(206,88)"/>
<path d="M0 0 C0.83265381 0.00523682 1.66530762 0.01047363 2.52319336 0.01586914 C3.33280518 0.0183667 4.14241699 0.02086426 4.9765625 0.0234375 C6.01159912 0.0325415 7.04663574 0.04164551 8.11303711 0.05102539 C9.88574002 0.06251386 11.6584453 0.07364009 13.43115234 0.08447266 C14.97094727 0.0941569 16.51074219 0.10384115 18.05053711 0.11352539 C17.82485046 0.76291077 17.59916382 1.41229614 17.36663818 2.08135986 C11.83443702 18.01913128 6.38813192 33.9846408 1.00366211 49.97290039 C0.53829292 51.35468727 0.53829292 51.35468727 0.06352234 52.76438904 C-2.19225515 59.46361381 -4.44599899 66.1635221 -6.69946289 72.86352539 C-9.25559699 80.46287359 -11.81256686 88.06193963 -14.37133789 95.66040039 C-14.8428147 97.06053375 -14.8428147 97.06053375 -15.3238163 98.48895264 C-21.40378424 116.53894094 -27.55081351 134.56571039 -33.71744251 152.58624649 C-35.86157038 158.85297866 -37.99562231 165.12309889 -40.12524414 171.39477539 C-40.91816555 173.72560389 -41.71144207 176.05631113 -42.50488281 178.38696289 C-43.03384201 179.94262489 -43.56175246 181.4986437 -44.08886719 183.05493164 C-44.88997127 185.41913708 -45.69470767 187.78207714 -46.50024414 190.14477539 C-46.73552322 190.84219849 -46.97080231 191.53962158 -47.21321106 192.25817871 C-48.83554464 196.99960714 -48.83554464 196.99960714 -49.94946289 198.11352539 C-51.80233791 198.18579041 -53.65780167 198.19733759 -55.51196289 198.17602539 C-56.52387695 198.16700195 -57.53579102 198.15797852 -58.57836914 198.14868164 C-59.75206055 198.1312793 -59.75206055 198.1312793 -60.94946289 198.11352539 C-60.94946289 198.77352539 -60.94946289 199.43352539 -60.94946289 200.11352539 C-61.60946289 200.11352539 -62.26946289 200.11352539 -62.94946289 200.11352539 C-62.94946289 199.45352539 -62.94946289 198.79352539 -62.94946289 198.11352539 C-64.59946289 198.11352539 -66.24946289 198.11352539 -67.94946289 198.11352539 C-65.30145066 187.36683593 -61.61218942 176.94924966 -58.06274414 166.47680664 C-57.36934579 164.42301166 -56.67626343 162.36910997 -55.98347473 160.31510925 C-54.51055819 155.94981291 -53.03582924 151.58513505 -51.55963135 147.22094727 C-48.0851129 136.94819233 -44.62088665 126.67196517 -41.15594482 116.39597702 C-39.99074486 112.94055445 -38.82521151 109.48524444 -37.65966797 106.02993774 C-31.01564072 86.32953418 -24.40898605 66.61682691 -17.83456039 46.89309311 C-17.07976919 44.62943923 -16.32425412 42.36602821 -15.56851196 40.10269165 C-14.39136246 36.57704244 -13.21581266 33.05086417 -12.0416317 29.52422523 C-11.42646718 27.6774184 -10.81004651 25.83103012 -10.19355774 23.98466492 C-7.94284688 17.21362931 -5.80165049 10.42037312 -3.76583862 3.5814209 C-2.63180912 0.15326127 -2.63180912 0.15326127 0 0 Z " fill="#604CF5" transform="translate(379.949462890625,87.886474609375)"/>
<path d="M0 0 C2.64 0 5.28 0 8 0 C8 1.98 8 3.96 8 6 C10.97 6 13.94 6 17 6 C17 71.34 17 136.68 17 204 C10.07 204 3.14 204 -4 204 C-4 202.02 -4 200.04 -4 198 C-6.64 198 -9.28 198 -12 198 C-12 196.02 -12 194.04 -12 192 C-8.04 192 -4.08 192 0 192 C0 128.64 0 65.28 0 0 Z " fill="#0057FF" transform="translate(766,94)"/>
<path d="M0 0 C15.241875 -0.0825 30.48375 -0.165 46.1875 -0.25 C50.97660889 -0.28641602 55.76571777 -0.32283203 60.69995117 -0.36035156 C66.60803223 -0.37841797 66.60803223 -0.37841797 69.38545227 -0.3817749 C71.29991896 -0.38786407 73.21437159 -0.40182045 75.1287384 -0.42230225 C89.70276199 -0.57025508 104.54919968 -0.53374489 116 10 C117.02348148 11.65235088 118.02620783 13.31788628 119 15 C118.0750473 14.7868364 118.0750473 14.7868364 117.13140869 14.56936646 C106.62327301 12.46840677 96.15599741 12.74769625 85.484375 12.8046875 C83.41644427 12.80842425 81.34851176 12.81126809 79.28057861 12.81326294 C73.87525421 12.82084733 68.47003971 12.84045042 63.0647583 12.8626709 C56.55924246 12.88686789 50.05368958 12.89593507 43.54814148 12.90757751 C33.69868488 12.92687843 23.84946876 12.96523717 14 13 C14 32.8 14 52.6 14 73 C14.66 73 15.32 73 16 73 C16 77.29 16 81.58 16 86 C15.34 86 14.68 86 14 86 C14 106.79 14 127.58 14 149 C14.66 149 15.32 149 16 149 C16 153.29 16 157.58 16 162 C10.72 162 5.44 162 0 162 C0 108.54 0 55.08 0 0 Z " fill="#0056FE" transform="translate(1018,106)"/>
<path d="M0 0 C2.97 0 5.94 0 9 0 C9 1.98 9 3.96 9 6 C10.98 6 12.96 6 15 6 C15.0703969 21.63046779 15.12313726 37.26089207 15.15543652 52.89147949 C15.17083899 60.15068901 15.19180012 67.40979944 15.22631836 74.66894531 C15.25642535 81.00348548 15.27562296 87.33795381 15.28226548 93.67256355 C15.28614216 97.01998214 15.29673865 100.36703418 15.31719017 103.7144165 C15.448862 126.17472463 15.33430693 146.15097607 0 164 C-6.68217135 169.20927783 -13.92583283 172.57653203 -22 175 C-22.67933594 175.22558594 -23.35867188 175.45117188 -24.05859375 175.68359375 C-37.96083676 179.61307764 -54.91933414 177.70792874 -67.90234375 171.64453125 C-73.65843976 168.33632815 -78.86520246 164.1921777 -84 160 C-83.34 159.67 -82.68 159.34 -82 159 C-80.10075367 159.71221737 -78.20309442 160.42903959 -76.31494141 161.17016602 C-68.42919673 163.99695848 -60.42505762 164.32654688 -52.125 164.25 C-50.53727783 164.23984863 -50.53727783 164.23984863 -48.91748047 164.22949219 C-35.03395533 164.04543435 -22.0915502 162.27667406 -11.04296875 153.18359375 C-1.89184498 143.40256471 -0.70407694 130.76070056 -0.68115234 118.06640625 C-0.67110672 116.78752029 -0.6610611 115.50863434 -0.65071106 114.19099426 C-0.62355512 110.70605448 -0.60830475 107.22115479 -0.59528303 103.73613739 C-0.57958899 100.08592666 -0.55281897 96.43579705 -0.5272522 92.78564453 C-0.48057498 85.8833696 -0.44377759 78.98107921 -0.41057932 72.07872772 C-0.37227952 64.21648915 -0.3228901 56.35433227 -0.27259517 48.4921627 C-0.16943989 32.32816726 -0.08012648 16.16412636 0 0 Z " fill="#0256FE" transform="translate(933,94)"/>
<path d="M0 0 C2.97 0 5.94 0 9 0 C9 1.98 9 3.96 9 6 C10.98 6 12.96 6 15 6 C15 32.4 15 58.8 15 86 C15.66 86 16.32 86 17 86 C17 90.29 17 94.58 17 99 C16.34 99 15.68 99 15 99 C15 129.69 15 160.38 15 192 C15.66 192 16.32 192 17 192 C17 195.96 17 199.92 17 204 C10.07 204 3.14 204 -4 204 C-4 202.02 -4 200.04 -4 198 C-6.64 198 -9.28 198 -12 198 C-12 196.02 -12 194.04 -12 192 C-8.04 192 -4.08 192 0 192 C0 128.64 0 65.28 0 0 Z " fill="#0156FE" transform="translate(615,94)"/>
<path d="M0 0 C2.31 0 4.62 0 7 0 C7.185625 0.78375 7.37125 1.5675 7.5625 2.375 C8.036875 3.24125 8.51125 4.1075 9 5 C10.08144287 5.11351807 11.16288574 5.22703613 12.27709961 5.34399414 C14.18136597 5.84329224 14.18136597 5.84329224 16 7 C18.33341432 11.12384846 19.61292853 15.6128941 21.00390625 20.12109375 C21.45111315 21.4957737 21.90087324 22.86962533 22.35301208 24.24269104 C23.54842279 27.89598005 24.70920523 31.5593948 25.86297607 35.22601318 C26.98595457 38.77621648 28.1393189 42.31645324 29.29101562 45.85742188 C31.19510605 51.72539118 33.08069535 57.59904062 34.95507812 63.4765625 C38.18786381 73.6085487 41.46304791 83.72658266 44.75390625 93.83984375 C45.04454641 94.73302118 45.33518658 95.62619862 45.63463402 96.54644203 C52.76585224 118.44441611 60.06892357 140.28489092 67.375 162.125 C69.66216196 168.96270063 71.94822742 175.80076476 74.23186111 182.63964462 C75.13253568 185.33522087 76.03501292 188.030189 76.93759155 190.72512817 C77.47850021 192.3442298 78.01932739 193.96335864 78.56005859 195.58251953 C78.93382378 196.6960656 78.93382378 196.6960656 79.31513977 197.83210754 C81 202.88615746 81 202.88615746 81 204 C74.73 204 68.46 204 62 204 C61.34 202.02 60.68 200.04 60 198 C57.69 198 55.38 198 53 198 C52.67 196.02 52.34 194.04 52 192 C55.96 192 59.92 192 64 192 C63.71140106 191.16384155 63.42280212 190.32768311 63.12545776 189.46618652 C50.73305707 153.49636112 38.74559325 117.39057894 26.72252154 81.29613304 C24.3870497 74.28534074 22.04931588 67.27530422 19.71107876 60.26543379 C17.4337056 53.43783873 15.15749104 46.60985824 12.88226306 39.78154802 C11.5327563 35.73147247 10.18284934 31.68153152 8.83188248 27.63194275 C7.5745586 23.86284289 6.31868397 20.09326333 5.06396484 16.32329559 C4.60328614 14.93993192 4.14209088 13.55674014 3.68035507 12.17372894 C3.05351779 10.29592647 2.42869037 8.41745342 1.8039856 6.53894043 C1.45345186 5.4869622 1.10291813 4.43498398 0.74176216 3.35112762 C0 1 0 1 0 0 Z " fill="#0056FE" transform="translate(227,94)"/>
<path d="M0 0 C2.97 0 5.94 0 9 0 C9 1.98 9 3.96 9 6 C10.98 6 12.96 6 15 6 C15 36.36 15 66.72 15 98 C-18 98 -51 98 -85 98 C-85 96.02 -85 94.04 -85 92 C-87.97 92 -90.94 92 -94 92 C-94.04254356 90.00045254 -94.04080783 87.99958364 -94 86 C-92.13312423 84.13312423 -89.45718552 84.87993502 -86.97367859 84.87557983 C-86.10765518 84.87917511 -85.24163177 84.88277039 -84.34936523 84.88647461 C-82.9885231 84.88625557 -82.9885231 84.88625557 -81.60018921 84.8860321 C-78.58630015 84.88673159 -75.57247207 84.89452566 -72.55859375 84.90234375 C-70.47494033 84.9042078 -68.39128646 84.90563176 -66.30763245 84.90663147 C-60.81176554 84.91045766 -55.31592487 84.9202888 -49.82006836 84.93133545 C-43.23220614 84.94334148 -36.64433517 84.94795133 -30.05646515 84.95378876 C-20.03762516 84.96350051 -10.0188428 84.98265636 0 85 C0 56.95 0 28.9 0 0 Z " fill="#0256FE" transform="translate(731,94)"/>
<path d="M0 0 C3.63 0 7.26 0 11 0 C10.34 1.98 9.68 3.96 9 6 C10.32 6 11.64 6 13 6 C10.97921225 13.73009274 8.65634448 21.31457301 6.11791992 28.88916016 C5.74007355 30.02459763 5.36222717 31.1600351 4.97293091 32.32987976 C3.94341833 35.42146854 2.91124985 38.51215403 1.87776732 41.60241747 C0.77858665 44.89104326 -0.31735021 48.18075004 -1.41374207 51.4703064 C-3.26523735 57.02385735 -5.11904157 62.57663318 -6.97436523 68.12890625 C-8.84884883 73.738563 -10.72136084 79.3488719 -12.59155273 84.95996094 C-29.82281163 136.65749823 -29.82281163 136.65749823 -38.29340172 161.6039238 C-38.89025102 163.3628854 -39.48571499 165.12231777 -40.07969093 166.88225174 C-40.87778267 169.24511558 -41.68147791 171.60599003 -42.48706055 173.96630859 C-42.71562178 174.64619213 -42.94418301 175.32607567 -43.17967033 176.02656174 C-44.20739197 179.01697387 -45.23087438 181.34631157 -47 184 C-47 183.34 -47 182.68 -47 182 C-47.66 182 -48.32 182 -49 182 C-49.12375 182.969375 -49.2475 183.93875 -49.375 184.9375 C-49.58125 185.948125 -49.7875 186.95875 -50 188 C-50.66 188.33 -51.32 188.66 -52 189 C-52.7078411 187.00710832 -53.39030382 185.00519539 -54.0625 183 C-54.44535156 181.88625 -54.82820313 180.7725 -55.22265625 179.625 C-56.83183046 172.1209112 -54.34387746 165.30222214 -51.96484375 158.22265625 C-51.6547789 157.28007462 -51.34471405 156.33749298 -51.0252533 155.36634827 C-50.00271215 152.26280466 -48.97004156 149.16272928 -47.9375 146.0625 C-47.21357779 143.87053663 -46.4904467 141.67831184 -45.76806641 139.48583984 C-44.26527993 134.92687486 -42.75908821 130.36905613 -41.25048828 125.81201172 C-38.0958973 116.27439962 -34.98222369 106.7234777 -31.86871338 97.1723938 C-30.87286539 94.11845385 -29.87584205 91.06490014 -28.87841797 88.01147461 C-25.6454722 78.11393945 -22.41758605 68.21478583 -19.19921875 58.3125 C-12.87296399 38.84984815 -6.51819453 19.39938849 0 0 Z " fill="#0156FE" transform="translate(361,94)"/>
<path d="M0 0 C2.97 0 5.94 0 9 0 C9 1.98 9 3.96 9 6 C10.98 6 12.96 6 15 6 C15.00146656 6.60571052 15.00293312 7.21142103 15.00444412 7.83548641 C15.04179227 22.69884569 15.1011692 37.56200068 15.18390274 52.42516994 C15.22340527 59.61344626 15.25594157 66.80161767 15.27099609 73.98999023 C15.2841644 80.26870436 15.31150422 86.54718481 15.35461307 92.8257671 C15.37689483 96.13826551 15.39081233 99.45023472 15.39188385 102.76284599 C15.34415038 134.8166507 15.34415038 134.8166507 25 165 C25.68183347 166.6605196 26.35282868 168.32566685 27 170 C18.94356647 167.77187428 12.73708319 162.03598534 8.125 155.125 C1.0917044 142.54956687 -0.31532458 129.05156083 -0.22705078 114.88769531 C-0.22734283 113.63748596 -0.22763489 112.38727661 -0.22793579 111.09918213 C-0.22679122 107.71147231 -0.2168459 104.32401426 -0.20278788 100.93634892 C-0.19018117 97.38097455 -0.18910226 93.8255959 -0.18673706 90.27020264 C-0.18055122 83.5557032 -0.16418015 76.84126984 -0.14403808 70.12679935 C-0.12158825 62.47492267 -0.11066294 54.82304263 -0.10064721 47.17114115 C-0.07981093 31.44738933 -0.04469207 15.72370323 0 0 Z " fill="#0256FE" transform="translate(815,94)"/>
<path d="M0 0 C2.97 0 5.94 0 9 0 C9 1.98 9 3.96 9 6 C11.64 6 14.28 6 17 6 C17.00423194 6.68506937 17.00846388 7.37013874 17.01282406 8.07596779 C17.11616736 24.75182365 17.2248106 41.42763572 17.33933926 58.10341835 C17.39459706 66.16772662 17.44806672 74.23203932 17.49731445 82.29638672 C17.54024759 89.325969 17.58654838 96.35551969 17.63687855 103.38505304 C17.66340607 107.10648045 17.68825704 110.8279019 17.70907402 114.549366 C17.7323864 118.70564675 17.76321784 122.86183934 17.79467773 127.01806641 C17.80331093 128.86520737 17.80331093 128.86520737 17.81211853 130.74966431 C17.82190735 131.88540894 17.83169617 133.02115356 17.84178162 134.1913147 C17.84823417 135.17394602 17.85468672 136.15657734 17.8613348 137.16898537 C18.00860091 140.1755977 18.45033498 143.04262491 19 146 C6.95751725 142.53680235 6.95751725 142.53680235 3.84765625 136.91796875 C1.16707117 131.16568119 -0.12665606 126.02278174 -0.12025452 119.65324402 C-0.12162918 118.59460144 -0.12300385 117.53595886 -0.12442017 116.44523621 C-0.12082489 115.29437027 -0.11722961 114.14350433 -0.11352539 112.95776367 C-0.11367142 111.73783722 -0.11381744 110.51791077 -0.1139679 109.26101685 C-0.11339142 105.92461808 -0.10838293 102.58828152 -0.10139394 99.25189376 C-0.0951343 95.76186924 -0.09455453 92.27184385 -0.09336853 88.78181458 C-0.09026291 82.17689522 -0.08205989 75.57199247 -0.07201904 68.96708041 C-0.06083401 61.44594904 -0.05534143 53.92481687 -0.05032361 46.40367925 C-0.03987664 30.93577657 -0.0222921 15.46789042 0 0 Z " fill="#0056FE" transform="translate(850,94)"/>
<path d="M0 0 C2.05078125 0.03255208 4.1015625 0.06510417 6.15234375 0.09765625 C6.15234375 2.07765625 6.15234375 4.05765625 6.15234375 6.09765625 C8.79234375 6.09765625 11.43234375 6.09765625 14.15234375 6.09765625 C14.15234375 12.03765625 14.15234375 17.97765625 14.15234375 24.09765625 C-38.31765625 24.09765625 -90.78765625 24.09765625 -144.84765625 24.09765625 C-144.84765625 22.11765625 -144.84765625 20.13765625 -144.84765625 18.09765625 C-147.48765625 18.09765625 -150.12765625 18.09765625 -152.84765625 18.09765625 C-152.84765625 16.11765625 -152.84765625 14.13765625 -152.84765625 12.09765625 C-103.34765625 12.09765625 -53.84765625 12.09765625 -2.84765625 12.09765625 C-2.84765625 8.46765625 -2.84765625 4.83765625 -2.84765625 1.09765625 C-1.84765625 0.09765625 -1.84765625 0.09765625 0 0 Z " fill="#0056FE" transform="translate(198.84765625,273.90234375)"/>
<path d="M0 0 C2.64 0 5.28 0 8 0 C8 1.98 8 3.96 8 6 C10.64 6 13.28 6 16 6 C16 11.94 16 17.88 16 24 C-36.47 24 -88.94 24 -143 24 C-143 22.02 -143 20.04 -143 18 C-145.64 18 -148.28 18 -151 18 C-151 16.02 -151 14.04 -151 12 C-101.17 12 -51.34 12 0 12 C0 8.04 0 4.08 0 0 Z " fill="#0057FF" transform="translate(572,274)"/>
<path d="M0 0 C20.13 0 40.26 0 61 0 C61 3.96 61 7.92 61 12 C46.15 12 31.3 12 16 12 C16 36.75 16 61.5 16 87 C9.4 87 2.8 87 -4 87 C-4 85.02 -4 83.04 -4 81 C-6.97 81 -9.94 81 -13 81 C-13 79.02 -13 77.04 -13 75 C-8.71 75 -4.42 75 0 75 C0 50.25 0 25.5 0 0 Z " fill="#0057FF" transform="translate(650,211)"/>
<path d="M0 0 C8.48167216 4.65123957 16.56795833 10.91592613 21.375 19.4375 C23.6035915 28.57472517 20.99961288 38.48650223 16.875 46.75 C11.35851176 55.78590952 3.05758688 61.13208499 -7 64 C-12.73012405 64.63724529 -18.38328666 64.5870749 -24.140625 64.48828125 C-25.76014097 64.4789329 -27.37967126 64.47182638 -28.99920654 64.46684265 C-33.22121585 64.44793136 -37.44233797 64.39897255 -41.66400146 64.34332275 C-45.98811854 64.29178321 -50.31238175 64.26925524 -54.63671875 64.24414062 C-63.09154883 64.19083413 -71.54566345 64.10571996 -80 64 C-80 62.02 -80 60.04 -80 58 C-82.64 58 -85.28 58 -88 58 C-88 56.02 -88 54.04 -88 52 C-87.14524078 51.99413376 -86.29048157 51.98826752 -85.40982056 51.98222351 C-77.31887626 51.92410248 -69.22820233 51.85191592 -61.13752174 51.76428509 C-56.97890825 51.71972937 -52.8203894 51.68044154 -48.66162109 51.65356445 C-44.64138633 51.62738264 -40.62151867 51.58687765 -36.60151291 51.53681374 C-35.0747271 51.52024488 -33.54787795 51.50866889 -32.02101517 51.50238609 C-21.10038838 51.45294133 -10.83783322 51.15443642 -2 44 C4.20397347 37.44151376 5.55908128 30.89706553 5.5 22.1875 C5.49935547 21.30400879 5.49871094 20.42051758 5.49804688 19.51025391 C5.3399973 12.60068356 3.77952084 7.80426414 0 2 C0 1.34 0 0.68 0 0 Z " fill="#0056FE" transform="translate(1128,203)"/>
<path d="M0 0 C2.97 0 5.94 0 9 0 C9 1.98 9 3.96 9 6 C11.64 6 14.28 6 17 6 C17 11.94 17 17.88 17 24 C-16.66 24 -50.32 24 -85 24 C-85 28.29 -85 32.58 -85 37 C-90.28 37 -95.56 37 -101 37 C-101 28.75 -101 20.5 -101 12 C-67.67 12 -34.34 12 0 12 C0 8.04 0 4.08 0 0 Z " fill="#0056FE" transform="translate(569,125)"/>
<path d="M0 0 C2.64 0 5.28 0 8 0 C8 1.98 8 3.96 8 6 C10.97 6 13.94 6 17 6 C17 11.94 17 17.88 17 24 C-16.66 24 -50.32 24 -85 24 C-85 28.29 -85 32.58 -85 37 C-90.28 37 -95.56 37 -101 37 C-101 28.75 -101 20.5 -101 12 C-67.67 12 -34.34 12 0 12 C0 8.04 0 4.08 0 0 Z " fill="#0057FF" transform="translate(194,125)"/>
<path d="M0 0 C2.64 0 5.28 0 8 0 C8 1.98 8 3.96 8 6 C10.64 6 13.28 6 16 6 C16 11.94 16 17.88 16 24 C-16.67 24 -49.34 24 -83 24 C-83 28.62 -83 33.24 -83 38 C-88.28 38 -93.56 38 -99 38 C-99 29.42 -99 20.84 -99 12 C-66.33 12 -33.66 12 0 12 C0 8.04 0 4.08 0 0 Z " fill="#0057FF" transform="translate(567,199)"/>
<path d="M0 0 C2.64 0 5.28 0 8 0 C8 1.98 8 3.96 8 6 C10.64 6 13.28 6 16 6 C16 11.94 16 17.88 16 24 C-16.67 24 -49.34 24 -83 24 C-83 28.62 -83 33.24 -83 38 C-88.28 38 -93.56 38 -99 38 C-99 29.42 -99 20.84 -99 12 C-66.33 12 -33.66 12 0 12 C0 8.04 0 4.08 0 0 Z " fill="#0057FF" transform="translate(192,199)"/>
<path d="M0 0 C4.00922044 1.51844229 6.73130565 3.19826199 10 6 C10.87398437 6.68449219 10.87398437 6.68449219 11.765625 7.3828125 C15.66366017 10.51106762 18.51429311 13.07859594 20 18 C20.63597172 27.53957586 17.10557538 36.09927365 11.0234375 43.359375 C5.45852918 48.74215904 -0.79642755 51.40429931 -8 54 C-9.66885883 54.66115992 -11.33628074 55.32601154 -13 56 C-11.58460937 56.32871094 -11.58460937 56.32871094 -10.140625 56.6640625 C1.96657478 59.60014956 12.0618612 62.95332009 20 73 C17.03953084 72.38398318 14.0819142 71.75766298 11.125 71.125 C10.28324219 70.95097656 9.44148438 70.77695313 8.57421875 70.59765625 C7.76855469 70.42363281 6.96289062 70.24960938 6.1328125 70.0703125 C5.38918457 69.91320801 4.64555664 69.75610352 3.87939453 69.59423828 C2 69 2 69 0 67 C0.99 66.34 1.98 65.68 3 65 C-5.28285808 62.69583743 -13.44123696 62.65215708 -21.97265625 62.5859375 C-23.50680041 62.56719669 -25.04093458 62.54762118 -26.57505798 62.5272522 C-30.58456493 62.47623222 -34.59410518 62.43644664 -38.60375977 62.39910889 C-42.7066247 62.35887873 -46.8093547 62.30787378 -50.91210938 62.2578125 C-58.94131358 62.16141074 -66.97058537 62.07689332 -75 62 C-75 60.02 -75 58.04 -75 56 C-77.64 56 -80.28 56 -83 56 C-83 54.02 -83 52.04 -83 50 C-82.32729568 49.99413376 -81.65459137 49.98826752 -80.96150208 49.98222351 C-73.90351301 49.91784731 -66.84596143 49.83331816 -59.78833008 49.73754883 C-57.16111044 49.70447667 -54.53382277 49.6763908 -51.90649414 49.65356445 C-48.11054735 49.61969138 -44.31521418 49.56735974 -40.51953125 49.51171875 C-38.78277885 49.50213387 -38.78277885 49.50213387 -37.01094055 49.49235535 C-25.15570884 49.28286732 -13.10225789 47.92389069 -4.2890625 39.33203125 C2.62508161 31.6927452 4.34243182 24.0759546 4.30078125 13.96875 C3.7963323 8.9897733 1.97738763 4.56388127 0 0 Z " fill="#0056FE" transform="translate(1123,129)"/>
<path d="M0 0 C2.64 0 5.28 0 8 0 C8 1.98 8 3.96 8 6 C10.64 6 13.28 6 16 6 C16 11.94 16 17.88 16 24 C-25.25 24 -66.5 24 -109 24 C-109 22.02 -109 20.04 -109 18 C-111.64 18 -114.28 18 -117 18 C-117 16.02 -117 14.04 -117 12 C-78.39 12 -39.78 12 0 12 C0 8.04 0 4.08 0 0 Z " fill="#0057FF" transform="translate(197,243)"/>
<path d="M0 0 C2.64 0 5.28 0 8 0 C8 1.98 8 3.96 8 6 C10.64 6 13.28 6 16 6 C16 11.94 16 17.88 16 24 C-24.92 24 -65.84 24 -108 24 C-108 22.02 -108 20.04 -108 18 C-110.97 18 -113.94 18 -117 18 C-117 16.02 -117 14.04 -117 12 C-78.39 12 -39.78 12 0 12 C0 8.04 0 4.08 0 0 Z " fill="#0057FF" transform="translate(572,243)"/>
<path d="M0 0 C2.64 0 5.28 0 8 0 C8 1.98 8 3.96 8 6 C10.64 6 13.28 6 16 6 C16 11.94 16 17.88 16 24 C-23.6 24 -63.2 24 -104 24 C-104 22.02 -104 20.04 -104 18 C-106.64 18 -109.28 18 -112 18 C-112 16.02 -112 14.04 -112 12 C-57.055 11.505 -57.055 11.505 -1 11 C-0.67 7.37 -0.34 3.74 0 0 Z " fill="#0056FE" transform="translate(192,168)"/>
<path d="M0 0 C2.64 0 5.28 0 8 0 C8 1.98 8 3.96 8 6 C10.64 6 13.28 6 16 6 C16 11.94 16 17.88 16 24 C-23.27 24 -62.54 24 -103 24 C-103 22.02 -103 20.04 -103 18 C-105.97 18 -108.94 18 -112 18 C-112 16.02 -112 14.04 -112 12 C-75.04 12 -38.08 12 0 12 C0 8.04 0 4.08 0 0 Z " fill="#0057FF" transform="translate(567,168)"/>
<path d="M0 0 C2.97 0 5.94 0 9 0 C9 1.98 9 3.96 9 6 C10.98 6 12.96 6 15 6 C15 32.73 15 59.46 15 87 C15.66 87 16.32 87 17 87 C17 90.96 17 94.92 17 99 C10.07 99 3.14 99 -4 99 C-4 97.02 -4 95.04 -4 93 C-6.64 93 -9.28 93 -12 93 C-12 91.02 -12 89.04 -12 87 C-8.04 87 -4.08 87 0 87 C0 58.29 0 29.58 0 0 Z " fill="#0256FE" transform="translate(731,199)"/>
<path d="M0 0 C1.98 0 3.96 0 6 0 C6.66 1.98 7.32 3.96 8 6 C10.31 6 12.62 6 15 6 C15.29987823 6.96005447 15.59975647 7.92010895 15.90872192 8.90925598 C18.76147725 18.0421613 21.61454801 27.17496803 24.46791267 36.30768299 C25.93416582 41.00072829 27.40031512 45.69380597 28.86621094 50.38696289 C30.28594426 54.93231332 31.70597144 59.47757186 33.12618637 64.02277184 C33.66280044 65.74030095 34.19931585 67.4578609 34.73572159 69.17545509 C35.24758502 70.81442032 35.75979567 72.45327716 36.27236748 74.09202099 C36.76921867 75.68343889 37.2641024 77.27547252 37.75691414 78.86814594 C39.03382363 82.98146543 40.35548176 87.07300011 41.746521 91.14926147 C42.03000334 91.99694186 42.31348568 92.84462225 42.6055584 93.71798992 C43.14445869 95.32543226 43.69596491 96.92872935 44.262743 98.52655506 C46.42814086 105.05393808 46.0913472 110.50690034 43.80859375 117.0625 C43.58623047 117.71347656 43.36386719 118.36445313 43.13476562 119.03515625 C42.90466797 119.68355469 42.67457031 120.33195312 42.4375 121 C42.08655273 122.01900391 42.08655273 122.01900391 41.72851562 123.05859375 C41.15930351 124.70814723 40.58065942 126.3544412 40 128 C37.84663448 124.76995171 36.80967216 121.64658501 35.68432617 117.98217773 C35.34911626 116.9111882 35.34911626 116.9111882 35.00713444 115.81856251 C34.2644663 113.44165082 33.52872472 111.06265327 32.79296875 108.68359375 C32.27049697 107.00660442 31.74760075 105.32974728 31.2243042 103.65301514 C29.82754336 99.17322566 28.43676602 94.6916002 27.04734421 90.20952988 C25.62059213 85.60986014 24.18905411 81.01168041 22.75805664 76.41333008 C20.51483496 69.2028858 18.27491567 61.99142352 16.03710938 54.77929688 C13.5198089 46.66720589 10.98973258 38.55920139 8.453125 30.453125 C7.55156653 27.56577929 6.65060295 24.67824932 5.75015259 21.79055786 C5.21103026 20.06366172 4.67065749 18.33715542 4.1289978 16.61105347 C3.40364435 14.29790539 2.68346782 11.98321455 1.96484375 9.66796875 C1.5793335 8.43328857 1.19382324 7.1986084 0.79663086 5.92651367 C0 3 0 3 0 0 Z " fill="#0056FE" transform="translate(262,94)"/>
<path d="M0 0 C2.64 0 5.28 0 8 0 C8 1.98 8 3.96 8 6 C10.64 6 13.28 6 16 6 C16 26.46 16 46.92 16 68 C10.72 68 5.44 68 0 68 C0 45.56 0 23.12 0 0 Z " fill="#0056FE" transform="translate(650,94)"/>
<path d="M0 0 C6.83225156 -0.06903847 13.66328246 -0.12872395 20.49560547 -0.16479492 C22.8175874 -0.17983911 25.13954112 -0.20027945 27.46142578 -0.22631836 C30.80768823 -0.26289345 34.15357344 -0.27977054 37.5 -0.29296875 C38.5305249 -0.30845261 39.5610498 -0.32393646 40.62280273 -0.33988953 C47.76812173 -0.34154095 53.59745766 0.38265974 59.4375 4.875 C61 7 61 7 62 12 C47.15 12 32.3 12 17 12 C17 16.95 17 21.9 17 27 C11.39 27 5.78 27 0 27 C0 18.09 0 9.18 0 0 Z " fill="#0056FE" transform="translate(1052,210)"/>
<path d="M0 0 C6.58436076 -0.09194608 13.16648476 -0.17155205 19.75097656 -0.21972656 C21.98966021 -0.23981316 24.22829158 -0.2670878 26.46679688 -0.30175781 C29.68893349 -0.35040464 32.91037501 -0.37299874 36.1328125 -0.390625 C37.12991241 -0.41127014 38.12701233 -0.43191528 39.15432739 -0.45318604 C45.10049193 -0.45509612 48.46730018 0.04388829 53 4 C55.08007422 7.0255625 55 8.14475109 55 12 C42.46 12 29.92 12 17 12 C17 15.96 17 19.92 17 24 C11.39 24 5.78 24 0 24 C0 16.08 0 8.16 0 0 Z " fill="#0056FE" transform="translate(1052,137)"/>
</svg>
